<svg xmlns="http://www.w3.org/2000/svg" data-name="Layer 1" viewBox="0 0 100 125" x="0px" y="0px"><path d="M14.88,61.72c-0.84-.54-1.62-1-2.37-1.52A30.35,30.35,0,0,1,2.67,49.66,21.13,21.13,0,0,1,.15,41.84a21.88,21.88,0,0,1,3.91-15.3A31.28,31.28,0,0,1,13,18,44.2,44.2,0,0,1,24.75,12.7a43.91,43.91,0,0,1,5.85-1.31c1.57-.23,3.15-0.4,4.74-0.54a44.08,44.08,0,0,1,6.11-.1c1.49,0.08,3,.2,4.47.35a44.43,44.43,0,0,1,7,1.34A44.28,44.28,0,0,1,65.55,18a31,31,0,0,1,9.57,9.5,21.76,21.76,0,0,1,3.4,13.35,22.89,22.89,0,0,1-5.63,13.35A34.27,34.27,0,0,1,61.71,62.8a46.34,46.34,0,0,1-7.8,3.06,49,49,0,0,1-6.81,1.46,53,53,0,0,1-9.83.5c-1.56-.07-3.12-0.23-4.67-0.39-1-.1-1.9-0.27-2.85-0.41a0.64,0.64,0,0,0-.5.11,46.72,46.72,0,0,1-12.88,6.3A44,44,0,0,1,9.23,75a1.89,1.89,0,0,1-2-1.43,2.18,2.18,0,0,1,.68-2.17c0.64-.69,1.27-1.4,1.91-2.1a29.07,29.07,0,0,0,3.51-4.55C13.9,63.79,14.36,62.73,14.88,61.72Z"/><path d="M85.18,75.95a19,19,0,0,0,3.45,5.79c1.16,1.35,2.36,2.67,3.53,4a5.31,5.31,0,0,1,.46.65,1.7,1.7,0,0,1,.16,1.39,1.91,1.91,0,0,1-2.18,1.48c-1.53-.33-3.08-0.51-4.59-0.9a46.26,46.26,0,0,1-14.49-6.44,5.76,5.76,0,0,1-.63-0.44,0.88,0.88,0,0,0-.78-0.17c-1.76.23-3.52,0.51-5.29,0.65s-3.52.15-5.28,0.16a46.32,46.32,0,0,1-5.73-.39,47.52,47.52,0,0,1-9.67-2.19,43,43,0,0,1-9.56-4.65l-0.16-.11L36,74.87a46.89,46.89,0,0,0,6.21,0c1.54-.1,3.09-0.19,4.62-0.39,1.75-.23,3.5-0.53,5.23-0.89a52.67,52.67,0,0,0,10.37-3.32A46.27,46.27,0,0,0,71,65.49a38.45,38.45,0,0,0,9.4-9.44,29.91,29.91,0,0,0,4.85-11.38,28.76,28.76,0,0,0,.44-7.19A29,29,0,0,0,84.48,31l0-.17L84.77,31a34.26,34.26,0,0,1,8.78,6.9,25,25,0,0,1,5.53,9.41,21.46,21.46,0,0,1,.86,7.89,22.09,22.09,0,0,1-4.17,11.28A32.09,32.09,0,0,1,86.65,75Z"/></svg>