<svg xmlns="http://www.w3.org/2000/svg" viewBox="0 0 64 80" x="0px" y="0px"><g data-name="Layer 87"><path d="M52,22a10,10,0,0,0-9.8,8H24a10,10,0,0,1-9.84-8.24A10,10,0,0,0,22,12C21.45-1.27,2.55-1.26,2,12a10,10,0,0,0,8,9.8V42.2A10,10,0,0,0,2,52c.55,13.27,19.45,13.26,20,0a10,10,0,0,0-8-9.8V29.79A14,14,0,0,0,24,34H42.2C44.89,45.66,61.66,44.07,62,32A10,10,0,0,0,52,22ZM6,12c.25-7.93,11.75-7.93,12,0C17.75,19.93,6.25,19.93,6,12ZM18,52c-.25,7.93-11.75,7.93-12,0C6.25,44.07,17.75,44.07,18,52ZM52,38c-7.93-.25-7.93-11.75,0-12C59.93,26.25,59.93,37.75,52,38Z"/></g></svg>