<svg xmlns="http://www.w3.org/2000/svg" xmlns:xlink="http://www.w3.org/1999/xlink" version="1.1" x="0px" y="0px" viewBox="0 0 32 40" style="enable-background:new 0 0 32 32;" xml:space="preserve"><path d="M30.4,11.7c-1.4-4.8-5.2-8.6-10-10C19,1.2,17.5,1,16,1s-3,0.2-4.3,0.6c-4.8,1.4-8.6,5.2-10,10C1.2,13,1,14.5,1,16  s0.2,3,0.6,4.3c1.4,4.8,5.2,8.6,10,10C13,30.8,14.5,31,16,31s3-0.2,4.3-0.6c4.8-1.4,8.6-5.2,10-10C30.8,19,31,17.5,31,16  S30.8,13,30.4,11.7z M22,15h-5v-5c1.6,0,3.2,0.2,4.5,0.4C21.8,11.8,21.9,13.4,22,15z M15,15h-5c0-1.6,0.2-3.2,0.4-4.5  c1.4-0.2,2.9-0.4,4.5-0.4V15z M8,15H3c0-0.7,0.2-1.4,0.3-2.1c1.3-0.8,2.9-1.5,5-2C8.2,12.2,8,13.6,8,15z M3,17h5  c0,1.4,0.2,2.8,0.3,4.1c-2-0.5-3.7-1.2-5-2C3.2,18.4,3.1,17.7,3,17z M10,17h5v5c-1.6,0-3.2-0.2-4.5-0.4C10.2,20.1,10.1,18.6,10,17z   M17,17h5c0,1.6-0.2,3.1-0.4,4.5c-1.4,0.2-2.9,0.4-4.5,0.4V17z M24,17h5c-0.1,0.7-0.2,1.4-0.3,2.1c-1.3,0.8-2.9,1.5-5,2  C23.8,19.8,24,18.4,24,17z M29,15h-5c0-1.4-0.2-2.8-0.3-4.1c2,0.5,3.7,1.2,5,2C28.8,13.6,28.9,14.3,29,15z M27.6,10.1  c-1.3-0.6-2.7-1-4.3-1.4c-0.4-1.6-0.8-3-1.4-4.3C24.3,5.7,26.3,7.7,27.6,10.1z M21.1,8.3C19.8,8.2,18.4,8,17,8V3  c0.7,0,1.4,0.2,2.1,0.3C19.9,4.6,20.6,6.3,21.1,8.3z M15,3v5c-1.4,0-2.8,0.2-4.1,0.3c0.5-2,1.2-3.7,2-5C13.6,3.2,14.3,3.1,15,3z   M10.1,4.4c-0.6,1.3-1,2.7-1.4,4.3c-1.6,0.3-3,0.8-4.3,1.4C5.7,7.7,7.7,5.7,10.1,4.4z M4.4,21.9c1.3,0.6,2.7,1,4.3,1.4  c0.4,1.6,0.8,3,1.4,4.3C7.7,26.3,5.7,24.3,4.4,21.9z M10.9,23.6c1.3,0.2,2.7,0.3,4.1,0.3v5c-0.7,0-1.4-0.2-2.1-0.3  C12.1,27.4,11.4,25.7,10.9,23.6z M17,29v-5c1.4,0,2.8-0.2,4.1-0.3c-0.5,2-1.2,3.7-2,5C18.4,28.8,17.7,28.9,17,29z M21.9,27.6  c0.6-1.3,1-2.7,1.4-4.3c1.6-0.4,3-0.8,4.3-1.4C26.3,24.3,24.3,26.3,21.9,27.6z"/></svg>